<svg width="62" height="83" viewBox="0 0 62 83" fill="none" xmlns="http://www.w3.org/2000/svg">
<path d="M31.2479 33.309V17.8371L46.124 25.573V41.2725L61 33.309V17.8371L31.2479 1L1 17.8371V33.309L16.124 41.2725L31.2479 49.236V66.073L16.3719 57.882L16.124 41.2725L1 49.236V66.073L31.2479 82L61 66.073V49.236L46.124 41.2725L31.2479 33.309Z" fill="white"/>
<path d="M31.2479 17.8371V33.309L46.124 41.2725V25.573L31.2479 17.8371Z" fill="#10B981"/>
<path d="M31.2479 66.073V49.236L16.124 41.2725L16.3719 57.882L31.2479 66.073Z" fill="#10B981"/>
<path d="M46.124 41.2725L61 49.236V66.073L31.2479 82L1 66.073V49.236M46.124 41.2725L31.2479 33.309V17.8371L46.124 25.573V41.2725ZM46.124 41.2725L61 33.309V17.8371L31.2479 1L1 17.8371V33.309M1 33.309C1 33.309 10.2177 38.1625 16.124 41.2725M1 33.309L16.124 41.2725M31.2479 49.236V66.073L16.3719 57.882M31.2479 49.236C31.2479 49.236 22.0302 44.3824 16.124 41.2725M31.2479 49.236L16.124 41.2725M16.3719 57.882C16.3719 57.882 16.2208 47.7589 16.124 41.2725M16.3719 57.882L16.124 41.2725M16.124 41.2725C10.2177 44.3824 1 49.236 1 49.236M16.124 41.2725L1 49.236" stroke="white"/>
</svg>
