<svg width="100" height="100" viewBox="0 0 100 100" fill="none" xmlns="http://www.w3.org/2000/svg">
<rect width="100" height="100" rx="10" fill="url(#paint0_linear_3_13)"/>
<path d="M49.7273 42.2727V26.8182L63.3636 34.5455V50.2273L77 42.2727V26.8182L49.7273 10L22 26.8182V42.2727L35.8636 50.2273L49.7273 58.1818V75L36.0909 66.8182L35.8636 50.2273L22 58.1818V75L49.7273 90.9091L77 75V58.1818L63.3636 50.2273L49.7273 42.2727Z" fill="white"/>
<path d="M49.7273 26.8182V42.2727L63.3636 50.2273V34.5455L49.7273 26.8182Z" fill="#10B981"/>
<path d="M49.7273 75V58.1818L35.8636 50.2273L36.0909 66.8182L49.7273 75Z" fill="#10B981"/>
<path d="M63.3636 50.2273L77 58.1818V75L49.7273 90.9091L22 75V58.1818M63.3636 50.2273L49.7273 42.2727V26.8182L63.3636 34.5455V50.2273ZM63.3636 50.2273L77 42.2727V26.8182L49.7273 10L22 26.8182V42.2727M22 42.2727C22 42.2727 30.4495 47.1208 35.8636 50.2273M22 42.2727L35.8636 50.2273M49.7273 58.1818V75L36.0909 66.8182M49.7273 58.1818C49.7273 58.1818 41.2777 53.3337 35.8636 50.2273M49.7273 58.1818L35.8636 50.2273M36.0909 66.8182C36.0909 66.8182 35.9524 56.7064 35.8636 50.2273M36.0909 66.8182L35.8636 50.2273M35.8636 50.2273C30.4495 53.3337 22 58.1818 22 58.1818M35.8636 50.2273L22 58.1818" stroke="white"/>
<defs>
<linearGradient id="paint0_linear_3_13" x1="50" y1="0" x2="50" y2="100" gradientUnits="userSpaceOnUse">
<stop stop-color="#10B981"/>
<stop offset="1" stop-color="#059669"/>
</linearGradient>
</defs>
</svg>
